# xmcd
#
# Track frame offsets:
#	183
#	22728
#	35250
#	58855
#	77853
#	107775
#	119248
#	140010
#	154993
#	173615
#	190945
#
# Disc length: 2844 seconds
#
# Revision: 0
# Processed by: cddbd v1.4b42PL0 Copyright (c) Steve Scherf et al.
# Submitted via: EasyCDDAExtractor 4.5.0.2
#
DISCID=950b1a0b
DTITLE=張學友 - 夢中的妳
DYEAR=1990
DGENRE=
TTITLE0=夢中的妳
TTITLE1=千金一刻
TTITLE2=再度重遇妳
TTITLE3=地震
TTITLE4=李香蘭
TTITLE5=人間道
TTITLE6=期待
TTITLE7=年少無情
TTITLE8=不願再纏綿
TTITLE9=復活
TTITLE10=雨夜傾情
EXTD=
EXTT0=
EXTT1=
EXTT2=
EXTT3=
EXTT4=
EXTT5=
EXTT6=
EXTT7=
EXTT8=
EXTT9=
EXTT10=
PLAYORDER=
